<?xml version="1.0" encoding="utf-8"?>
<!-- Generator: Adobe Illustrator 24.1.3, SVG Export Plug-In . SVG Version: 6.00 Build 0)  -->
<svg version="1.1" id="Camada_1" xmlns="http://www.w3.org/2000/svg" xmlns:xlink="http://www.w3.org/1999/xlink" x="0px" y="0px"
	 viewBox="0 0 106 20" style="enable-background:new 0 0 106 20;" xml:space="preserve">
<style type="text/css">
	.st0{clip-path:url(#SVGID_2_);}
	.st1{fill:#555555;}
	.st2{fill:#E05D44;}
	.st3{fill:url(#SVGID_3_);}
	.st4{enable-background:new    ;}
	.st5{fill:none;}
	.st6{fill:#010101;}
	.st7{font-family:'Verdana';}
	.st8{font-size:11px;}
	.st9{fill:#FFFFFF;}
</style>
<g>
	<defs>
		<path id="SVGID_1_" d="M3,0h100c1.7,0,3,1.3,3,3v14c0,1.7-1.3,3-3,3H3c-1.7,0-3-1.3-3-3V3C0,1.3,1.3,0,3,0z"/>
	</defs>
	<clipPath id="SVGID_2_">
		<use xlink:href="#SVGID_1_"  style="overflow:visible;"/>
	</clipPath>
	<g class="st0">
		<rect y="0" class="st1" width="47" height="20"/>
		<rect x="47" y="0" class="st2" width="59" height="20"/>
		
			<linearGradient id="SVGID_3_" gradientUnits="userSpaceOnUse" x1="-241.1981" y1="410.3398" x2="-241.1981" y2="409.3398" gradientTransform="matrix(106 0 0 -20 25620 8206.7949)">
			<stop  offset="0" style="stop-color:#BBBBBB;stop-opacity:0.1"/>
			<stop  offset="1" style="stop-color:#000000;stop-opacity:0.1"/>
		</linearGradient>
		<rect y="0" class="st3" width="106" height="20"/>
	</g>
</g>
<g text-rendering="geometricPrecision">
	<g class="st4">
		<rect x="6.4" y="5.5" class="st5" width="37" height="12.8"/>
		<text transform="matrix(1 0 0 1 6.3833 15.0001)"><tspan x="0" y="0" class="st6 st7 st8">autho</tspan><tspan x="32.3" y="0" class="st6 st7 st8">r</tspan></text>
	</g>
	<rect x="6.4" y="4.5" class="st5" width="37" height="12.8"/>
	<text transform="matrix(1 0 0 1 6.3833 14.0001)" class="st4"><tspan x="0" y="0" class="st9 st7 st8">autho</tspan><tspan x="32.3" y="0" class="st9 st7 st8">r</tspan></text>
	<g class="st4">
		<text transform="matrix(1 0 0 1 50.6074 15.0001)" class="st6 st7 st8">dbagui</text>
	</g>
	<text transform="matrix(1 0 0 1 50.6074 14.0001)" class="st9 st7 st8">dbagui</text>
</g>
</svg>
